<svg xmlns="http://www.w3.org/2000/svg" viewBox="0 0 1024 1024" width="1024" height="1024">
  <g>
    <!-- background -->
    <path fill="url(#bg-gradient)" d="M165.5.6c-21.2,2.6-31.4,4.8-46,10.1-11.8,4.2-22.9,9.4-30.3,14-2.9,1.8-5.5,3.3-5.7,3.3-1.9,0-19.5,14.1-29,23.2C30.5,74.2,13,103.8,5.9,133.2-.3,158.9,0,137.6,0,512s.2,341.9,1.6,352.5c2.1,16.5,4,25.3,7.9,37,17,51.3,56.3,91.7,108,111,12.1,4.5,15.8,5.5,35,9.3,7.1,1.3,46.2,1.6,354,1.9,375.8.4,355,.7,378.5-4.8,19.1-4.4,40.1-13.3,56.2-23.5,10.5-6.7,29.7-22.4,34.9-28.6,14.3-17,22.7-29.6,30.3-45.1,7.8-16.4,11-26.9,15.8-53.2,1.7-9.6,2.5-690.7.8-706-2.9-25.8-7.5-41.9-18.1-63.5-10-20.6-28.6-43.6-47.5-59.1-22.7-18.5-49.3-30.5-83.9-37.6-7.3-1.5-36.5-1.7-356.5-1.8-191.7-.1-349.8-.1-351.5.1Z"/>

    <!-- flames -->
    <path fill="#E0E0E0" d="M478.5,185.1c6.6,2.3,17.5,6.9,24.2,10.4,32.3,16.8,50.1,36.8,54.9,61.9,1.7,8.3,1.7,9.5.2,16.7-4.6,21.9-20.5,38.5-63.1,65.4-31.5,19.9-46.7,32.8-54.6,46.3-5,8.6-6.5,15.3-5.8,25.7,1.1,15.2,6.7,26.1,23,44,2.4,2.7,1.8,5.1-1.3,4.8-4.4-.4-22.2-10.1-31.2-16.8-26.6-20-38.6-43.8-34.9-69.3,3.6-25.2,18.1-42.3,60.1-70.7,22.3-15.2,35.2-26.5,41.6-36.7,1.4-2.2,3.4-7.4,4.5-11.6,1.7-6.6,1.8-8.7.9-14.6-2.2-14.4-12.2-30-30.5-47.4-12.2-11.7-13.1-13.8-5.2-12.8,2.8.4,10.6,2.5,17.2,4.7Z"/>
    <path fill="#E0E0E0" d="M599,239.3c24.9,15.2,41.1,34.6,46.7,55.7,2.2,8.2,2.4,26.4.4,33.5-2.9,10.4-7.9,19.1-15.6,27.3-12.2,13-19.2,17.2-68.5,41-15.4,7.5-26.5,14.6-34,22.1-7.9,7.8-10.6,12.5-12.2,22-1.6,9.4.5,19.1,7.2,32.9,6.8,14.1,5.7,15.5-5.6,7.1-35.2-26.1-46.6-60.8-28.9-88.5,7.9-12.4,19.5-22.6,43-37.9,29.2-19,40.1-26.5,47.2-32.5,26.9-22.8,29.3-49.9,7.2-80.6-2.7-3.8-4.9-7.4-4.9-8,0-3.3,6.3-1.3,18,5.9Z"/>

    <!-- cup -->
    <path fill="white" d="M832.8,587c-.4-26.8-.5-28.8-2.7-34.3-3.6-9.1-10.9-16.2-18.6-18.1-1.6-.5-21.1-.7-43.2-.7,0,0-40.3.2-40.4.2v-12.3c0-6.8,0-12.7,0-13.2,0-.4-.1-1.7-.4-2.7h0c-.6-1.9-5.6-1.9-226.6-1.9h-226l.4,67.7c.4,74.9.5,76.3,7.7,107.6,5.3,23.2,10.9,38.7,21.3,59.1,20.5,40.3,50.6,72.2,92.3,97.6l9.8,6h93.1c59,0,94.3-.4,96.5-1,4.8-1.4,21.9-12,34.5-21.4,25.5-19,48.9-45.7,61.5-70.3l4.1-8.1,5.7-.7c16.5-2,45.9-11.6,66.1-21.5,29.7-14.6,51-38,59-64.8,5.3-17.9,6.4-31.1,5.9-67.2ZM796,595.3c0,13.3-.5,28-1.1,32.7-1.4,11.7-5.5,23.2-11,31.5-9.5,14.1-21,22-48.4,32.9-9.6,3.9-20.3,7.1-21,6.4s.5-4.4,1.9-9.1c6.8-23.4,9.8-48.2,10.3-85.7.2-16.8.6-31.1.8-31.8h0c.3-.9,8.1-1.2,34.5-1.2h34v24.3Z"/>

    <!-- cup highlight -->
    <path fill="#a1887f" d="M312.6,544c-1.8,1.9-1.9,3.3-1.3,33.7.7,34.3,2.5,50.7,8.3,74,8.6,35,24,65.8,44.8,89.4,14.3,16.2,41.5,37.9,47.4,37.9s6-2.9,6.3-5c.5-4.7-.3-5.9-7.3-10.6-37.6-25.2-66.3-66.7-76.8-111.1-6.1-25.8-8-42.5-8.7-76.8-.4-24.9-.8-30.3-2.1-31.8-2.1-2.3-8.1-2.2-10.6.3Z"/>
  </g>

  <defs>
    <radialGradient id="bg-gradient" cx="0" cy="0" r="1" gradientUnits="userSpaceOnUse" gradientTransform="translate(512 512) rotate(90) scale(512)">
      <stop stop-color="#A1887F"/>
      <stop offset="1" stop-color="#6D4C41"/>
    </radialGradient>
  </defs>
</svg>
