<svg xmlns="http://www.w3.org/2000/svg" viewBox="0 0 665 665">
  <g>
    <!-- cup -->
    <path d="M653.3,407.5c-.4-26.8-.5-28.8-2.7-34.3-3.6-9.1-10.9-16.2-18.6-18.1-1.6-.5-21.1-.7-43.2-.7,0,0-40.3.2-40.4.2v-25.5c0-.4,0-1.7-.4-2.7h0c-.6-1.9-5.6-1.9-226.6-1.9H95.4l.4,67.7c.4,74.9.5,76.3,7.7,107.6,5.3,23.2,10.9,38.7,21.3,59.1,20.5,40.3,50.6,72.2,92.3,97.6l9.8,6h93.1c59,0,94.3-.4,96.5-1,4.8-1.4,21.9-12,34.5-21.4,25.5-19,48.9-45.7,61.5-70.3l4.1-8.1,5.7-.7c16.5-2,45.9-11.6,66.1-21.5,29.7-14.6,51-38,59-64.8,5.3-17.9,6.4-31.1,5.9-67.2h0ZM616.5,415.8c0,13.3-.5,28-1.1,32.7-1.4,11.7-5.5,23.2-11,31.5-9.5,14.1-21,22-48.4,32.9-9.6,3.9-20.3,7.1-21,6.4s.5-4.4,1.9-9.1c6.8-23.4,9.8-48.2,10.3-85.7.2-16.8.6-31.1.8-31.8h0c.3-.9,8.1-1.2,34.5-1.2h34v24.3h0Z"/>
  </g>
</svg>
