<svg xmlns="http://www.w3.org/2000/svg" viewBox="0 0 665 665">
  <g>
    <!-- flames -->
    <path d="M299,5.6c6.6,2.3,17.5,6.9,24.2,10.4,32.3,16.8,50.1,36.8,54.9,61.9,1.7,8.3,1.7,9.5.2,16.7-4.6,21.9-20.5,38.5-63.1,65.4-31.5,19.9-46.7,32.8-54.6,46.3-5,8.6-6.5,15.3-5.8,25.7,1.1,15.2,6.7,26.1,23,44,2.4,2.7,1.8,5.1-1.3,4.8-4.4-.4-22.2-10.1-31.2-16.8-26.6-20-38.6-43.8-34.9-69.3,3.6-25.2,18.1-42.3,60.1-70.7,22.3-15.2,35.2-26.5,41.6-36.7,1.4-2.2,3.4-7.4,4.5-11.6,1.7-6.6,1.8-8.7.9-14.6-2.2-14.4-12.2-30-30.5-47.4-12.2-11.7-13.1-13.8-5.2-12.8,2.8.4,10.6,2.5,17.2,4.7h0Z"/>
    <path d="M419.5,59.8c24.9,15.2,41.1,34.6,46.7,55.7,2.2,8.2,2.4,26.4.4,33.5-2.9,10.4-7.9,19.1-15.6,27.3-12.2,13-19.2,17.2-68.5,41-15.4,7.5-26.5,14.6-34,22.1-7.9,7.8-10.6,12.5-12.2,22-1.6,9.4.5,19.1,7.2,32.9,6.8,14.1,5.7,15.5-5.6,7.1-35.2-26.1-46.6-60.8-28.9-88.5,7.9-12.4,19.5-22.6,43-37.9,29.2-19,40.1-26.5,47.2-32.5,26.9-22.8,29.3-49.9,7.2-80.6-2.7-3.8-4.9-7.4-4.9-8,0-3.3,6.3-1.3,18,5.9h0Z"/>
    <!-- cup -->
    <path d="M653.3,407.5c-.4-26.8-.5-28.8-2.7-34.3-3.6-9.1-10.9-16.2-18.6-18.1-1.6-.5-21.1-.7-43.2-.7,0,0-40.3.2-40.4.2v-25.5c0-.4,0-1.7-.4-2.7h0c-.6-1.9-5.6-1.9-226.6-1.9H95.4l.4,67.7c.4,74.9.5,76.3,7.7,107.6,5.3,23.2,10.9,38.7,21.3,59.1,20.5,40.3,50.6,72.2,92.3,97.6l9.8,6h93.1c59,0,94.3-.4,96.5-1,4.8-1.4,21.9-12,34.5-21.4,25.5-19,48.9-45.7,61.5-70.3l4.1-8.1,5.7-.7c16.5-2,45.9-11.6,66.1-21.5,29.7-14.6,51-38,59-64.8,5.3-17.9,6.4-31.1,5.9-67.2h0ZM616.5,415.8c0,13.3-.5,28-1.1,32.7-1.4,11.7-5.5,23.2-11,31.5-9.5,14.1-21,22-48.4,32.9-9.6,3.9-20.3,7.1-21,6.4s.5-4.4,1.9-9.1c6.8-23.4,9.8-48.2,10.3-85.7.2-16.8.6-31.1.8-31.8h0c.3-.9,8.1-1.2,34.5-1.2h34v24.3h0Z"/>
  </g>
</svg>
